<svg xmlns="http://www.w3.org/2000/svg" viewBox="0 0 500 500"><defs><style>.cls-1{fill:#439a48;}</style></defs><title>Iconos</title><g id="Capa_1" data-name="Capa 1"><path class="cls-1" d="M167,497.25c-5.26-2.43-8.41-6.86-11.43-11.59-9.57-15-19.38-29.86-28.93-44.88-1.77-2.78-3.73-3.68-7-3.6-19.23.49-38.49.25-57.68,1.3-11.89.64-20.13-11.18-13.71-22.91,21.82-39.85,43-80.06,64.47-120.07,2-3.62,2-5.63-1.45-8.61C87.17,266.34,82.87,231.75,100.81,205c10.44-15.57,10.28-27.78-.28-43.1a62.85,62.85,0,0,1-9.27-21.27c-8.17-34.11,16.21-69.89,51-74.86a66.32,66.32,0,0,1,18-.21c13.15,1.68,27.1-7,33.28-20.22,9.42-20.21,25.08-32.27,47.13-36a61.65,61.65,0,0,1,66,34.74c5.77,12.43,15,19.82,28.67,21.39a24.08,24.08,0,0,0,5.69,0,62.08,62.08,0,0,1,69.55,54.83c1.84,15.77-2.23,29.89-11.21,42.72-9.34,13.36-9.48,27.27-.17,40.77,19.07,27.65,14.88,61.6-10.46,83.66-2.43,2.1-2.51,3.7-1.07,6.38q27.29,50.81,54.37,101.7,5.61,10.51,11.24,21c5.64,10.52-.85,21.76-12.78,21.66q-29.33-.25-58.64-1.08c-3.65-.09-5.74,1-7.69,4.08-9.69,15.3-19.72,30.39-29.41,45.69-2.78,4.39-6,8.1-10.7,10.32h-7.64c-3.67-2.15-7.21-4.24-9.37-8.3q-25.31-47.73-50.85-95.34c-5.11-9.55-10.24-19.09-15.61-29.12C228.9,405,207.52,444.86,186.3,484.79c-2.82,5.3-5.75,10.18-11.64,12.46ZM161.68,273c25.56-.06,47.61,14.15,57.85,36.78,6,13.22,16.52,20.13,30.77,20.2s24.86-6.89,30.92-20c11.58-25.07,36-39.24,63.73-36.75,14.63,1.31,25.84-4.25,33-17,6.89-12.24,5.78-24.3-2.21-35.85-16.48-23.83-16.27-50.12.52-74.17,13.47-19.32,3.08-46.28-19.86-51.71-5.4-1.28-10.71-.45-16.1-.19C315.57,95.5,292,80.82,281.47,57.82,273.32,40,254.74,32.55,237,39.9a31.8,31.8,0,0,0-17.43,17.39,62.31,62.31,0,0,1-64.65,36.47c-14.23-1.81-28.34,7.12-33.83,20.58-4.64,11.38-3.42,22.12,3.67,32.07,8.2,11.48,12.67,24.18,12.41,38.28-.24,13.4-4.93,25.32-12.54,36.36-14.56,21.14-1.91,48.82,23.48,52.22C153,273.92,157.6,272.35,161.68,273ZM331.34,454.54c1.39-2,2.47-3.54,3.47-5.08,7.09-10.93,14.27-21.8,21.2-32.83,3.67-5.84,8.64-8.41,15.5-8.18,13.65.45,27.31.55,41,1,3.71.11,4-.92,2.38-4q-27.14-50.57-54.1-101.23c-1.17-2.19-2.51-2.95-4.87-2.59a39.7,39.7,0,0,1-11.37.38c-17-2.31-30.09,4.84-37.5,20.47-5.76,12.15-14.27,21.79-26.07,28.21-3.48,1.89-3.5,3.28-1.79,6.45,13.19,24.45,26.2,49,39.29,73.5C322.62,438.48,326.86,446.25,331.34,454.54Zm-161.71-.09c.87-1.35,1.44-2.09,1.88-2.91q25.49-47.7,51-95.38c1.51-2.81.54-3.72-1.84-5a60.71,60.71,0,0,1-27.09-29.13c-6.48-14.11-19.62-21.82-35-20.26-4.3.43-8.54.77-12.8-.06-2.68-.51-4.22.35-5.59,2.94Q113.5,355,86.49,405.11c-1.93,3.61-1.41,4.48,2.67,4.34,13.34-.47,26.69-.52,40-1,7.24-.27,12.37,2.41,16.24,8.62C153.16,429.46,161.29,441.62,169.63,454.45Z"/><path class="cls-1" d="M250.75,88.7c52.09-.19,95.85,43.45,94.94,96.81-.86,51.06-43.92,93.57-95.92,93.08-51.24-.48-94.8-40.94-94.67-95.24C155.23,127.94,200.81,88.15,250.75,88.7Zm66.17,94.69A66.51,66.51,0,1,0,250.73,250C287.14,250,317,220,316.92,183.39Z"/></g></svg>